<svg xmlns="http://www.w3.org/2000/svg" width="360" height="360" viewBox="0 0 360 360">
  <rect width="360" height="360" rx="24" fill="#fff8ec"/>
  <rect x="24" y="24" width="312" height="312" rx="18" fill="white" stroke="#781f2d" stroke-width="6"/>
  <g fill="#781f2d">
    <rect x="50" y="50" width="80" height="80"/><rect x="70" y="70" width="40" height="40" fill="white"/>
    <rect x="230" y="50" width="80" height="80"/><rect x="250" y="70" width="40" height="40" fill="white"/>
    <rect x="50" y="230" width="80" height="80"/><rect x="70" y="250" width="40" height="40" fill="white"/>
    <rect x="155" y="55" width="20" height="20"/><rect x="190" y="55" width="20" height="45"/>
    <rect x="155" y="95" width="45" height="20"/><rect x="145" y="145" width="30" height="30"/>
    <rect x="190" y="145" width="55" height="20"/><rect x="270" y="150" width="35" height="35"/>
    <rect x="145" y="195" width="20" height="70"/><rect x="180" y="195" width="35" height="35"/>
    <rect x="230" y="210" width="25" height="25"/><rect x="280" y="215" width="30" height="30"/>
    <rect x="155" y="285" width="40" height="25"/><rect x="220" y="270" width="90" height="20"/>
    <rect x="220" y="305" width="35" height="15"/><rect x="280" y="300" width="25" height="25"/>
  </g>
  <text x="180" y="178" text-anchor="middle" font-family="Arial" font-size="16" font-weight="700" fill="#3b0d14">Replace with</text>
  <text x="180" y="198" text-anchor="middle" font-family="Arial" font-size="16" font-weight="700" fill="#3b0d14">Owner QR</text>
</svg>
